<?xml version="1.0" encoding="UTF-8"?>
<!DOCTYPE svg PUBLIC "-//W3C//DTD SVG 1.1//EN" "http://www.w3.org/Graphics/SVG/1.1/DTD/svg11.dtd">
<!-- Creator: CorelDRAW 2021 (64-Bit) -->
<svg xmlns="http://www.w3.org/2000/svg" xml:space="preserve" width="120.933mm" height="169.422mm" version="1.1" style="shape-rendering:geometricPrecision; text-rendering:geometricPrecision; image-rendering:optimizeQuality; fill-rule:evenodd; clip-rule:evenodd"
viewBox="0 0 12092.22 16940.71"
 xmlns:xlink="http://www.w3.org/1999/xlink"
 xmlns:xodm="http://www.corel.com/coreldraw/odm/2003">
 <defs>
  <style type="text/css">
   <![CDATA[
    .fil1 {fill:#2B2A29}
    .fil0 {fill:#2B2A29;fill-rule:nonzero}
   ]]>
  </style>
 </defs>
 <g id="Warstwa_x0020_1">
  <metadata id="CorelCorpID_0Corel-Layer"/>
  <g id="_2573811622160">
   <path class="fil0" d="M2777.91 16934.61c-68.7,0 -126.77,-12.32 -174.16,-36.85 -47.45,-24.53 -85.04,-57.43 -112.84,-98.73 -27.8,-41.3 -48.07,-88.08 -60.71,-140.41 -12.69,-52.37 -19.03,-106.3 -19.03,-161.95l0 -439.06 84.61 0 0 439.06c0,44.99 4.74,89.17 14.12,132.5 9.42,43.33 24.76,82.15 46.03,116.54 21.26,34.33 49.87,61.5 85.85,81.54 35.99,20.03 80.92,30.07 134.91,30.07 55.6,0 101.62,-10.42 137.99,-31.31 36.37,-20.83 65.01,-48.44 85.85,-82.77 20.88,-34.33 35.8,-72.97 44.8,-115.92 9,-42.95 13.5,-86.46 13.5,-130.65l0 -439.06 85.85 0 0 439.06c0,58.1 -6.54,113.7 -19.66,166.83 -13.07,53.19 -34.14,99.78 -63.16,139.84 -29.03,40.06 -66.81,71.97 -113.46,95.65 -46.6,23.73 -103.42,35.62 -170.48,35.62zm1481.93 -642.73l82.2 0 -274.74 636.57 -72.36 0 -133.73 -316.46 -132.45 316.46 -72.35 0 -274.75 -636.57 80.93 0 233.02 551.1 117.77 -287.2 -107.92 -262.67 74.82 0 80.92 206.46 82.21 -206.46 73.58 0 -106.73 262.67 117.77 287.2 231.79 -551.1zm315.52 636.57l0 -639.03 82.15 0 1.23 639.03 -83.38 0zm0 -772.71l0 -122.65 82.15 0 1.23 122.65 -83.38 0zm666.31 784.97c-45.8,0 -88.32,-8.8 -127.57,-26.37 -39.26,-17.38 -73.21,-41.49 -101.81,-71.93 -28.61,-30.69 -50.91,-65.86 -66.86,-105.69 -15.92,-40.07 -23.92,-82.82 -23.92,-128.38 0,-59.28 13.69,-113.7 41.11,-163.14 27.37,-49.49 65.2,-89.16 113.46,-118.81 48.25,-29.64 103.04,-44.32 164.37,-44.32 62.92,0 117.95,15.1 164.98,44.94 46.98,30.07 84,69.7 111,119 26.94,49.06 40.44,102.8 40.44,161.29 0,6.53 0,12.88 0,18.8 0,6.16 -0.38,10.84 -1.18,14.11l-547.08 0c4.12,45.61 17,86.04 38.65,121.42 21.69,35.37 49.86,63.4 84.61,84.24 34.76,20.64 72.59,31.06 113.46,31.06 41.73,0 81.16,-10.6 118.39,-31.87 37.22,-21.26 63.16,-49.06 77.89,-83.43l72.35 19.65c-13.07,30.26 -33.15,57.63 -60.08,82.16 -27,24.53 -58.67,43.57 -95.09,57.05 -36.37,13.5 -75.43,20.22 -117.1,20.22zm-235.54 -360.59l472.26 0c-3.27,-46.23 -15.77,-86.71 -37.41,-121.42 -21.69,-34.76 -49.92,-62.17 -84.67,-82.01 -34.71,-19.8 -72.97,-29.65 -114.64,-29.65 -41.73,0 -79.74,9.85 -114.08,29.65 -34.38,19.84 -62.36,47.45 -84.05,82.58 -21.64,35.19 -34.14,75.43 -37.41,120.85zm806.1 -547.03l83.43 0 0 755.14c0,32.06 5.73,52.95 17.15,62.93 11.46,9.8 25.38,14.73 41.72,14.73 14.73,0 29.46,-1.66 44.14,-4.93 14.73,-3.26 27.42,-6.53 38.03,-9.8l14.72 67.48c-15.53,6.53 -34.52,11.84 -57.01,15.96 -22.5,4.07 -41.92,6.1 -58.29,6.1 -37.6,0 -67.62,-11.03 -90.11,-33.34 -22.5,-22.06 -33.77,-52.52 -33.77,-91.15l0 -783.13zm765.66 907.62c-49.92,0 -96.08,-12.88 -138.61,-38.64 -42.53,-25.76 -75.67,-58.24 -99.35,-97.5l0 123.88 -74.81 0 0 -895.36 83.39 0 0 393.7c28.6,-43.33 62.97,-78.27 103.04,-104.89 40.06,-26.56 86.65,-39.82 139.83,-39.82 44.95,0 85.24,9.37 120.8,27.98 35.57,18.81 66.01,43.76 91.39,75.01 25.34,31.3 44.57,66.67 57.63,106.12 13.07,39.45 19.6,79.93 19.6,121.41 0,44.8 -7.53,86.7 -22.68,125.73 -15.11,38.83 -36.56,73.82 -64.4,104.27 -27.8,30.45 -59.85,54.37 -96.26,71.93 -36.38,17.38 -76.24,26.18 -119.57,26.18zm-19.66 -73.58c34.34,0 66.25,-6.96 95.7,-20.65 29.41,-13.92 54.8,-32.91 76.05,-57.24 21.22,-24.34 37.6,-51.72 49.06,-82.16 11.42,-30.5 17.15,-61.93 17.15,-94.47 0,-44.56 -9.62,-86.65 -28.8,-126.1 -19.22,-39.26 -45.79,-70.93 -79.74,-94.85 -33.95,-23.96 -73.82,-35.99 -119.61,-35.99 -32.68,0 -63.17,7.34 -91.35,21.88 -28.22,14.73 -53.18,33.91 -74.81,57.81 -21.69,23.92 -39.45,50.11 -53.37,78.51l0 197.46c3.26,21.88 11.84,42.34 25.76,61.32 13.87,19.23 31.26,35.61 52.14,49.49 20.84,13.69 42.72,24.77 65.63,32.72 22.87,8.2 44.94,12.27 66.19,12.27zm586.62 61.32l0 -639.03 82.16 0 1.23 639.03 -83.39 0zm0 -772.71l0 -122.65 82.16 0 1.23 122.65 -83.39 0zm338.82 589.98c0,-39.88 11.46,-74.2 34.33,-103.05 22.92,-28.84 54.6,-51.09 95.04,-67.04 40.49,-15.77 87.32,-23.73 140.45,-23.73 31.07,0 63.36,2.46 96.88,7.34 33.53,4.93 63.41,12.31 89.55,22.12l0 -53.8c0,-53.75 -15.91,-96.27 -47.83,-127.95 -31.88,-31.68 -76.05,-47.64 -132.45,-47.64 -34.38,0 -68.09,6.34 -101.2,19.03 -33.15,12.65 -67.66,31.26 -103.65,55.79l-31.87 -58.85c41.67,-28.66 82.58,-50.11 122.64,-64.4 40.07,-14.3 80.93,-21.45 122.65,-21.45 78.51,0 140.64,22.25 186.43,67.04 45.79,44.76 68.7,106.5 68.7,185.2l0 293.73c0,11.46 2.42,19.65 7.34,24.96 4.93,5.3 12.69,8.38 23.3,9.19l0 66.24c-9,0.8 -16.76,1.66 -23.3,2.46 -6.53,0.81 -11.46,0.81 -14.73,0 -20.41,-0.8 -35.99,-7.39 -46.6,-19.65 -10.65,-12.27 -16.33,-25.34 -17.19,-39.21l-1.23 -46.65c-28.6,36.8 -65.82,65.2 -111.61,85.23 -45.79,20.03 -92.38,30.07 -139.79,30.07 -40.92,0 -77.89,-8.8 -111.04,-26.18 -33.11,-17.57 -58.86,-41.06 -77.23,-70.7 -18.43,-29.65 -27.61,-62.36 -27.61,-98.11zm428.07 48.63c9,-11.46 15.91,-22.3 20.84,-32.91 4.92,-10.42 7.34,-19.84 7.34,-27.99l0 -92.43c-27.8,-10.42 -56.59,-18.61 -86.47,-24.11 -29.83,-5.73 -59.89,-8.57 -90.16,-8.57 -59.66,0 -107.91,11.65 -144.71,35.14 -36.8,23.54 -55.22,55.6 -55.22,96.08 0,23.54 6.16,45.6 18.42,66.24 12.27,20.65 30.26,37.6 53.99,51.1 23.68,13.31 51.48,20.03 83.39,20.03 40.06,0 77.46,-7.76 112.22,-23.11 34.76,-15.29 61.51,-35.14 80.36,-59.47zm1365.44 134.11l-83.43 0 0 -354.68c0,-73.77 -11.84,-128.38 -35.57,-163.33 -23.73,-34.95 -58.86,-52.33 -105.46,-52.33 -48.25,0 -91.39,16.96 -129.41,51.1 -38.03,34.15 -64.83,78.08 -80.36,131.65l0 387.59 -83.39 0 0 -354.68c0,-74.63 -11.46,-129.42 -34.33,-163.94 -22.92,-34.57 -58.05,-51.72 -105.5,-51.72 -47.41,0 -90.35,16.53 -128.76,49.87 -38.45,33.34 -65.44,77.04 -80.97,131.46l0 389.01 -83.39 0 0 -636.57 76.05 0 0 145.14c26.94,-49.68 61.51,-87.89 103.61,-114.69 42.14,-26.76 88.92,-40.25 140.45,-40.25 53.13,0 96.08,15.1 128.8,45.18 32.73,30.02 52.76,69.46 60.09,118.14 29.46,-53.56 64.77,-94.23 106.12,-121.84 41.29,-27.61 88.07,-41.48 140.4,-41.48 36,0 66.44,6.53 91.39,19.41 24.96,13.07 44.99,31.68 60.09,55.6 15.16,23.92 26.19,52.76 33.15,86.47 6.92,33.95 10.42,71.54 10.42,112.84l0 372.06zm321.62 -279.68l-1.23 -597.32 82.16 0 1.23 597.32 -82.16 0zm0 279.68l-1.23 -137.38 82.16 0 1.23 137.38 -82.16 0z"/>
   <g>
    <path class="fil0" d="M5539.14 11807.3l0 1992.36 1055.94 0c319.06,0 579.09,-88.45 780.86,-264.57 201.82,-172.6 307.89,-416.33 319.16,-732.04 -11.27,-314.85 -117.34,-560.33 -319.16,-736.4 -201.77,-172.65 -461.8,-259.36 -780.86,-259.36l-1055.94 0zm-396.12 2093.84l0 -4066.25 1209.88 0c403.59,0 739.62,85 1007.12,254.15 259.97,173.45 394.17,417.18 400.74,732.04 -6.58,318.36 -140.78,561.19 -400.74,726.88 -113.56,74.58 -240.28,131.84 -380.12,172.6 282.47,40.78 522.74,138.8 720.82,294.92 253.44,206.41 382.91,469.22 390.44,787.58 -7.53,315.7 -137,575.92 -390.44,783.23 -260.02,209.91 -592.25,314.85 -995.84,314.85l-1561.86 0zm396.12 -3963.92l0 1768.6 748.09 0c319.06,0 575.34,-72.87 769.63,-218.58 195.19,-142.25 297.52,-364.29 308.79,-666.17 -11.27,-298.37 -113.6,-521.26 -308.79,-670.48 -197.13,-142.25 -454.31,-213.37 -769.63,-213.37l-748.09 0z"/>
    <path class="fil0" d="M8884.72 13352.07c-426.75,-406.81 -640.12,-901.19 -640.12,-1484.07 0,-582.87 213.37,-1077.29 640.12,-1484.06 427.6,-405.91 938.45,-609.77 1535.21,-609.77 325.27,0 628.85,60.7 909.85,183.02 281.05,129.22 535.19,318.3 762.44,569l-193.44 193.38c-165.65,-270.58 -374.71,-481.35 -625.36,-630.55 -250.69,-142.25 -535.18,-213.37 -853.5,-213.37 -515.21,0 -938.51,186.47 -1270.69,559.48 -332.18,372.96 -497.88,850 -497.88,1432.86 0,582.88 165.7,1060.78 497.88,1433.72 332.18,372.11 755.47,558.59 1270.69,558.59 321.81,0 606.27,-72.83 853.5,-218.59 250.65,-142.25 459.71,-350.41 625.36,-625.35l193.44 193.43c-227.25,254.1 -481.4,442.33 -762.44,563.75 -274.94,125.77 -577.67,188.22 -909.85,188.22 -596.76,0 -1107.6,-202.95 -1535.21,-609.72z"/>
    <path class="fil0" d="M3740.16 10394.84c185.41,-90.38 280.47,-212.87 285.09,-366.62 1.56,-84.58 -19.66,-152.57 -63.31,-203.96 -45.21,-48.28 -107.02,-72.21 -185.81,-72.21 -84.24,0 -149.11,23.94 -194.32,72.21 -48.28,48.29 -71.1,107.41 -67.98,176.56 -1.56,84.58 46.72,184.25 144.88,298.96l81.47 95.05zm35.96 40.54l613.46 706.55c75.67,-144.84 113.93,-309.42 115.48,-493.68l124.79 0c-21.27,187.36 -89.26,365.83 -203.97,536.6l563.86 628.67 -181.18 0 -464.19 -515.52c-152.23,186.97 -343.83,281.25 -574.81,282.81 -214.42,-3.12 -378.97,-49.06 -493.34,-137.93 -116.26,-90.76 -174.61,-207.46 -174.61,-350.79 3.11,-140.6 44.83,-261.88 124.78,-364.66 69.16,-88.82 197.39,-180.02 384.77,-273.86l-74.95 -85.8c-102.34,-120.88 -153.74,-232.53 -153.74,-335.31 3.12,-93.44 40.59,-171.12 113.2,-232.92 75.33,-61.8 168.83,-92.71 280.47,-92.71 102.74,0 189.66,27.84 260.38,83.46 71.05,57.52 106.58,133.64 106.58,228.69 0,92.32 -38.6,174.22 -115.49,246.84 -64.92,63.36 -148.73,120.11 -251.47,169.56zm536.56 826.32l-665.23 -767.19c-113.15,55.64 -200.07,124.4 -260.37,205.91 -75.68,102.74 -113.15,224.07 -113.15,364.28 0,144.88 49.83,258.81 149.11,341.88 99.62,86.14 221.34,129.02 364.67,129.02 206.64,3.07 377.8,-83.07 513.77,-258.03 3.07,-5.8 6.57,-11.25 11.2,-15.87z"/>
    <polygon class="fil0" points="366.05,13901.13 -0,13901.13 -0,9834.88 366.05,9834.88 366.05,11624.27 2582.19,11624.27 2582.19,9834.88 2948.24,9834.88 2948.24,13901.13 2582.19,13901.13 2582.19,11725.75 366.05,11725.75 "/>
   </g>
   <g>
    <path class="fil1" d="M2133.06 2242.53l457.46 2199.43c195.14,938.16 774,1664.95 1616.79,2102.12 1938.56,1005.61 4809.52,229.28 5294.37,-2102.12l457.46 -2199.43 -108.04 22.47c-216.73,45.07 -434.42,85.04 -652.16,124.95 -1222.05,223.91 -2321.91,432.89 -3129.84,1474.77l-20.25 26.1 -19.86 -26.42c-51.36,-68.38 -107.39,-133.26 -168.64,-194.02 -798.4,-883.16 -1851.71,-1076.05 -2967.09,-1280.39 -217.74,-39.91 -435.47,-79.88 -652.2,-124.99l-108 -22.47zm5350.61 3490.75l933.8 281.12c478.2,-408.4 807.37,-952 942.56,-1601.89l377.58 -1815.28 -72.45 109.54c-690.37,1043.65 -1415.35,2046.24 -2181.48,3026.51zm799.7 389.16l-893.82 -269.1c-185.94,236.42 -374.27,471.59 -565.14,705.74 -52.57,64.47 -108.16,98.28 -183.44,129.39l-15.29 6.33 -1.61 96.66 29.45 -4.39c404.49,-60.6 801.76,-183.08 1165.22,-371.61 165.9,-86.06 321.13,-183.97 464.64,-293.02zm-33.53 -3391.02l-739.02 2731.56c742.68,-959.58 1446.12,-1941.67 2116.64,-2962.29l32.72 -49.79 -58.5 11.18c-125.43,23.96 -251.06,47 -376.69,69.99 -334.85,61.36 -661.4,121.72 -975.15,199.34zm-963.21 3019.02l-0.81 -0.2 805.67 -2977.75c-750.96,203.9 -1421.85,527.66 -1947.44,1232.63l-10.13 13.59 8.75 14.53c186.87,309.56 298.63,668.86 368.02,1021.95 92.95,473.28 117.16,964.83 116.52,1446.17l-0.08 71 85.08 -104.41c194.05,-238.03 385.49,-477.11 574.42,-717.52zm-2093.94 97.79l-1254.29 367.46c106.14,72.33 217.9,139.02 335.06,199.78 542.94,281.6 1162.59,416.74 1772.62,416.74 93.27,0 186.55,-3.18 279.63,-9.48l70.4 -4.76 -57.45 -40.95c-117.92,-83.99 -233.59,-171.78 -347.64,-260.91 -270.15,-211.12 -536.82,-434.42 -798.33,-667.89zm-1399.53 262.24l1275.88 -373.79c-994.36,-905.68 -1908.63,-1955.71 -2643.98,-3038.58l-71.45 -105.21 378.55 1819.63c146.09,702.22 518.66,1280.43 1061.01,1697.95zm733.33 -3147.14l748.46 2764.69c263.61,235.89 532.5,461.33 804.94,674.26 118.57,92.71 239.12,183.85 362.13,270.63l39.18 27.64 0.56 -47.97c6.1,-521.56 -12.54,-1056.61 -113.36,-1569.62 -235.01,-1196.2 -944.5,-1775.77 -1841.91,-2119.62zm553.12 2587.09l-716.47 -2646.49c-579.34,-199.86 -1226.54,-315.08 -1869.83,-441.03l-59.34 -11.62 33.53 50.31c722.61,1085.29 1626.11,2138.1 2612.11,3048.83z"/>
    <path class="fil1" d="M6746.59 1856.98l-654.7 654.7 -929.78 -929.91c-56.75,-56.29 -113.96,-113.03 -167.19,-173.35l-24.7 -28.19c-30.47,-33.16 -59.18,-67.95 -85.42,-104.16 -25.41,-35.02 -48.97,-72.03 -70.11,-110.84 -20.41,-37.39 -38.35,-76.07 -53.36,-115.71 -14.51,-38.35 -26.52,-78.2 -35.6,-119.36 -8.98,-40.57 -14.85,-81.35 -17.56,-121.86 -2.75,-41.22 -2.44,-82.46 0.92,-123.15 3.34,-40.14 9.91,-80.73 19.61,-121.18 9.51,-39.65 22.04,-78.51 37.45,-116.02 6.45,-15.63 12.88,-30.02 19.18,-43.11 6.57,-13.64 13.92,-27.79 21.95,-42.2 7.13,-12.88 15.31,-26.43 24.39,-40.64 7.84,-12.41 16.7,-25.28 26.43,-38.62 9.45,-13.03 19.08,-25.48 28.81,-37.24 9.75,-11.55 20.01,-23.16 30.84,-34.74 10.56,-11.36 21.49,-22.32 32.76,-32.91 11.67,-10.78 23.13,-20.87 34.43,-30.17 12.07,-9.94 24.42,-19.48 36.9,-28.43 12.99,-9.39 25.78,-17.97 38.16,-25.69 13.58,-8.34 26.89,-16.03 39.89,-22.91 13.43,-7.1 26.96,-13.68 40.48,-19.64 13.86,-6.11 27.79,-11.73 41.71,-16.7 13.19,-4.66 27.3,-9.11 42.4,-13.28 13.77,-3.86 28.19,-7.35 42.94,-10.31 14.42,-3.03 28.97,-5.44 43.45,-7.2 32.82,-4.01 65.88,-5.09 98.82,-3.48 33.22,1.63 66.25,6.23 98.7,13.43 33.1,7.34 65.48,17.44 96.7,29.95 31.71,12.72 62.82,28.16 93.02,45.94 31.46,18.49 61.31,39.27 89.62,61.83 29.52,23.47 57.67,49.22 84.37,76.54 27.76,28.37 54.07,58.74 78.82,90.33 26.31,33.32 50.82,68.32 73.66,103.98l14.85 24.21c159.9,-196.14 306.66,-368.42 583.54,-412.44 18.31,-4.29 55.98,-6.11 74.74,-7.19 73.51,-5.87 157.77,8.46 237.05,36.31 81.13,28.47 157.92,71.38 213.36,121.43 16.15,13.86 31.77,28.53 46.66,43.84 15.22,15.68 29.64,31.96 42.91,48.6 13.56,17.23 26.34,34.7 37.83,52.36 11.33,17.14 22.2,35.76 32.57,55.58 10.44,19.95 19.64,39.68 27.42,58.93 8,19.64 15.19,40.2 21.46,61.41 6.24,21.08 11.52,42.27 15.62,63.25 4.11,20.9 7.35,42.7 9.63,65.11l2.69 35.63 1.02 35.35 -1.05 35.79 -2.62 35.44 -4.3 35.48c-1.76,11.95 -3.86,23.74 -6.14,35.38 -2.29,11.58 -4.94,23.25 -7.84,34.77l-9.76 34.68c-3.46,11.88 -7.26,23.24 -11.12,34.08l-13.09 33.72c-4.07,9.82 -8.95,20.62 -14.6,32.45 -5.47,11.7 -10.93,22.45 -16.06,31.93l-17.69 30.59c-5.77,9.48 -12.23,19.36 -19.14,29.46 -6.55,9.6 -13.43,19.14 -20.47,28.37 -7.23,9.45 -14.64,18.68 -22.05,27.39 -13.61,15.81 -27.42,30.57 -41.31,44.06 -14.33,13.93 -29.33,27.17 -44.89,39.62 -15.91,12.75 -32.08,24.51 -48.26,35.07 -15.87,10.38 -33.2,20.44 -51.6,30.04 -17.91,9.33 -35.97,17.73 -53.91,24.95 -18.37,7.41 -37.3,14.02 -56.47,19.67 -19.42,5.71 -39.03,10.53 -58.68,14.36 -19.39,3.76 -39.4,6.73 -59.77,8.73 -162,14.3 -284.78,-50.88 -407.96,-149.92l-26.24 -22.48 -25.66 -23.09 -25.01 -24.02 -53.6 -55.55 92.28 -121.36c37.76,40.85 73.72,80.05 114.26,118.27l22.11 18.96 25.29 19.82 23.46 17.02 24.55 15.99 27.14 15.5 25.07 12.81 28.68 12.29 27.24 9.29 29.08 7.35 29.83 4.54 27.35 1.45 29.06 -1.45c17.57,-1.79 34.92,-4.44 51.9,-7.93 16.36,-3.37 33.28,-7.78 50.51,-13.25 16.09,-4.94 32.05,-10.99 47.71,-17.97 15.16,-6.64 30.19,-14.36 45.11,-23.09 14.14,-8.28 28.31,-17.73 42.33,-28.19 13.99,-10.44 27.05,-21.34 38.96,-32.52 12.57,-11.7 24.49,-24.14 35.67,-37.17 11.57,-13.49 22.35,-27.48 32.17,-41.75 6.39,-9.26 12.63,-18.98 18.59,-28.99 6.2,-10.43 11.82,-20.56 16.79,-30.26 5.07,-10.19 10.19,-21.12 15.19,-32.69 4.3,-9.64 8.53,-20.41 12.66,-32.02 3.92,-10.66 7.66,-22.26 11.27,-34.62 3.31,-11.2 6.33,-23 9.02,-34.95 2.65,-11.82 5,-23.83 6.95,-35.84 1.91,-11.74 3.55,-23.87 4.78,-36.13 1.27,-12.41 2.16,-24.64 2.66,-36.49 0.52,-12.51 0.71,-24.77 0.52,-36.56 -0.15,-10.93 -0.77,-23.16 -1.79,-36.56 -0.99,-12.94 -2.25,-25.07 -3.77,-36.12 -1.48,-10.87 -3.52,-22.79 -6.02,-35.45 -2.53,-12.6 -5.25,-24.36 -8.02,-34.95 -3.18,-11.98 -6.58,-23.41 -10.1,-34.03 -3.24,-9.75 -7.35,-20.78 -12.26,-32.85 -7.29,-18 -15.19,-34.98 -23.56,-50.73 -9.23,-17.13 -18.74,-32.97 -28.4,-47.24 -9.82,-14.45 -20.88,-28.87 -32.95,-43.04 -11.64,-13.65 -24.08,-26.65 -37.08,-38.84 -13.03,-12.2 -26.74,-23.65 -40.82,-34.12 -13.95,-10.37 -29.08,-20.35 -45.2,-29.76 -15.22,-9.05 -31.62,-17.48 -48.88,-25.23 -16.61,-7.47 -34.18,-14.23 -52.21,-20.19 -66.9,-22.14 -129.95,-27.42 -200.18,-23.9l-32.17 4.07 -35.11 6.77 -34.39 8.61 -29.4 9.39 -32.76 12.81 -30.91 14.33 -27.6 15.06 -29.95 18.87 -28.74 20.47 -29.09 22.14 -28.22 22.72 -26.09 22.48 -22.01 21.4 -19.36 20.19 -19.86 22.79 -363.07 435.84 -470.11 569.98 -95.49 117.29 768.22 763.09 574.55 -574.52 118.59 85.82 -44.03 44.25zm-1530.86 -424.29l725.46 -864.98 -6.88 -11.82c-16.95,-29.24 -35.79,-58.9 -56.38,-88.51 -20.13,-28.93 -41.44,-56.97 -63.84,-83.36 -22.48,-26.46 -46.25,-51.62 -71.22,-74.86 -24.7,-22.97 -51.1,-44.53 -79.07,-64 -24.27,-16.92 -49.31,-31.83 -74.74,-44.4 -25.01,-12.35 -50.63,-22.66 -76.47,-30.57 -24.51,-7.44 -50.2,-12.96 -76.87,-16.21 -25.38,-3.08 -51.07,-3.98 -76.65,-2.5 -11.71,0.68 -23.44,1.92 -35.02,3.55 -11.85,1.7 -23.46,3.83 -34.61,6.36 -11.46,2.66 -23.13,5.81 -34.61,9.42 -12.11,3.86 -23.65,7.97 -34.27,12.26 -10.81,4.32 -21.99,9.39 -33.29,15.01 -11.27,5.49 -22.17,11.42 -32.67,17.69 -11.57,6.94 -22.17,13.77 -31.74,20.44 -10.34,7.22 -20.62,15 -30.75,23.22 -9.57,7.75 -19.2,16.11 -28.65,24.91 -9.45,8.8 -18.62,17.94 -27.39,27.27 -9.26,9.82 -17.94,19.66 -25.94,29.33 -8.86,10.87 -16.88,21.21 -23.96,31 -7.65,10.71 -15.12,21.74 -22.26,33.01 -7.25,11.45 -14.14,23.06 -20.5,34.64 -6.67,12.16 -12.84,24.24 -18.43,36.03 -5.81,12.23 -11.21,24.52 -16.09,36.77 -12.5,31.44 -22.63,63.78 -30.26,96.67 -7.72,33.34 -13,67.17 -15.68,101.23 -2.72,34.4 -2.9,68.97 -0.59,103.12 2.35,34.39 7.2,68.28 14.42,101.17 7.41,33.47 17.35,66.37 29.52,98.57 12.47,33.01 27.29,64.96 44.03,95.59 17.2,31.43 36.83,62.11 58.53,91.72 22.2,30.35 46.47,59.39 72.33,86.91 16.03,17.35 45.76,45.85 58.25,63.5 25.26,27.63 49.93,54.77 76.26,81.84z"/>
   </g>
  </g>
 </g>
</svg>
