<?xml version="1.0" encoding="utf-8"?>
<svg version="1.0" width="407.000000pt" height="251.000000pt" viewBox="0 0 407.000000 251.000000" preserveAspectRatio="xMidYMid meet" xmlns="http://www.w3.org/2000/svg">
  <g transform="translate(0.000000,251.000000) scale(0.100000,-0.100000)" fill="#000000" stroke="none">
    <path d="M 0 1255 L 0 0 L 2035 0 L 4070 0 L 4070 1255 L 4070 2510 L 2035 2510 L 0 2510 L 0 1255 Z M 2228 2184 C 2329 2164 2486 2087 2573 2016 C 2719 1894 2827 1710 2848 1545 C 2863 1432 2855 1246 2831 1165 C 2805 1075 2726 925 2709 935 C 2704 939 2703 935 2706 927 C 2713 909 2614 801 2544 750 C 2428 664 2267 602 2140 595 C 2099 593 2075 593 2088 596 C 2100 599 2110 605 2110 610 C 2110 615 2103 616 2093 613 C 2083 609 2079 611 2084 618 C 2087 624 2113 628 2143 626 C 2264 621 2432 689 2559 794 C 2589 819 2618 836 2623 833 C 2629 830 2630 832 2627 838 C 2623 843 2636 867 2655 890 C 2711 957 2695 949 2629 876 C 2566 807 2477 738 2403 701 C 2335 667 2342 677 2426 731 C 2528 798 2582 842 2616 888 L 2643 925 L 2607 891 C 2557 844 2561 857 2615 922 C 2669 984 2742 1128 2767 1220 C 2795 1322 2792 1523 2761 1620 C 2679 1883 2488 2067 2231 2131 C 2106 2162 1947 2155 1827 2113 C 1705 2070 1639 2028 1540 1930 C 1474 1865 1444 1826 1412 1765 C 1362 1667 1332 1563 1323 1455 C 1320 1411 1315 1381 1312 1388 C 1310 1394 1304 1397 1298 1394 C 1290 1389 1290 1410 1295 1461 C 1300 1502 1304 1549 1304 1567 C 1305 1584 1308 1596 1313 1593 C 1320 1589 1324 1611 1321 1637 C 1318 1657 1358 1747 1399 1815 C 1577 2108 1898 2251 2228 2184 Z M 1726 1652 C 1719 1641 1680 1442 1680 1419 C 1680 1402 1688 1400 1750 1400 C 1789 1400 1820 1402 1820 1404 C 1820 1419 1853 1581 1861 1608 C 1882 1672 1887 1638 1870 1553 C 1839 1395 1839 1402 1858 1398 C 1879 1394 1925 1446 1934 1485 C 1952 1563 1961 1590 1969 1590 C 1974 1590 1970 1557 1959 1518 C 1949 1478 1940 1444 1940 1443 C 1940 1441 1947 1440 1955 1440 C 1972 1440 1975 1424 1960 1415 C 1955 1412 1950 1414 1950 1421 C 1950 1444 1932 1416 1925 1383 C 1919 1354 1921 1351 1937 1356 C 1952 1361 1951 1358 1933 1343 C 1919 1332 1905 1299 1894 1255 C 1884 1217 1875 1191 1872 1198 C 1870 1205 1873 1231 1879 1255 C 1894 1314 1893 1320 1870 1320 C 1847 1320 1843 1349 1862 1368 C 1871 1377 1870 1380 1858 1380 C 1849 1380 1839 1372 1836 1363 C 1821 1310 1799 1165 1804 1145 C 1808 1131 1804 1117 1795 1110 C 1782 1099 1780 1103 1780 1136 C 1780 1158 1772 1187 1762 1203 C 1742 1232 1662 1296 1654 1288 C 1652 1285 1649 1262 1648 1237 C 1645 1170 1630 1179 1630 1248 L 1630 1306 L 1585 1328 C 1560 1340 1540 1354 1540 1359 C 1540 1370 1595 1390 1626 1390 C 1645 1390 1650 1398 1659 1445 C 1665 1475 1675 1526 1681 1558 C 1695 1631 1707 1660 1720 1660 C 1726 1660 1729 1656 1726 1652 Z M 2106 1614 C 2103 1606 2091 1562 2080 1517 C 2068 1472 2057 1426 2054 1415 C 2051 1404 2071 1432 2099 1477 C 2173 1596 2234 1638 2270 1595 C 2296 1564 2259 1503 2184 1454 L 2156 1435 L 2200 1428 C 2223 1424 2250 1414 2259 1406 C 2281 1386 2327 1397 2348 1427 C 2443 1562 2580 1653 2620 1606 C 2630 1593 2630 1586 2622 1578 C 2613 1569 2610 1570 2610 1583 C 2610 1609 2570 1604 2519 1572 C 2421 1509 2300 1343 2300 1269 C 2300 1234 2334 1200 2371 1200 C 2413 1200 2506 1235 2547 1266 C 2586 1295 2606 1291 2569 1261 C 2529 1228 2448 1191 2400 1185 C 2347 1178 2290 1206 2290 1240 C 2290 1268 2282 1265 2242 1224 C 2197 1178 2110 1137 2043 1132 C 1924 1122 1902 1160 1980 1245 C 2001 1269 2013 1304 2040 1420 C 2084 1612 2089 1630 2102 1630 C 2107 1630 2109 1623 2106 1614 Z M 1503 862 C 1532 832 1577 790 1603 769 C 1630 747 1649 730 1645 730 C 1631 730 1511 833 1478 873 C 1435 927 1370 1023 1370 1034 C 1370 1039 1388 1015 1411 980 C 1433 946 1474 893 1503 862 Z M 2535 835 C 2496 803 2480 803 2517 835 C 2532 848 2550 859 2555 859 C 2561 859 2552 848 2535 835 Z M 1646 769 C 1649 763 1641 766 1626 775 C 1612 785 1600 794 1600 797 C 1600 804 1639 780 1646 769 Z M 1790 690 C 1795 690 1811 685 1827 678 C 1842 672 1859 668 1863 669 C 1868 670 1869 666 1865 660 C 1860 652 1854 652 1845 660 C 1837 667 1826 669 1820 665 C 1815 662 1810 664 1810 669 C 1810 675 1799 680 1786 680 C 1773 680 1757 687 1750 695 C 1743 703 1732 710 1725 710 C 1719 710 1705 720 1694 731 C 1679 748 1687 745 1728 721 C 1757 704 1785 690 1790 690 Z M 1765 740 C 1768 734 1764 733 1756 736 C 1738 743 1735 750 1749 750 C 1755 750 1762 746 1765 740 Z M 1795 652 C 1792 649 1784 652 1777 659 C 1768 669 1769 670 1783 664 C 1793 661 1798 655 1795 652 Z M 2093 663 C 2086 661 2074 661 2068 663 C 2061 666 2066 668 2080 668 C 2094 668 2099 666 2093 663 Z M 1845 640 C 1858 634 1860 631 1850 631 C 1842 631 1828 635 1820 640 C 1802 652 1818 652 1845 640 Z M 1897 624 C 1894 621 1885 620 1878 623 C 1870 626 1873 629 1884 629 C 1895 630 1901 627 1897 624 Z" style="fill: rgb(54, 88, 56);"/>
    <path d="M2831 1464 c0 -11 3 -14 6 -6 3 7 2 16 -1 19 -3 4 -6 -2 -5 -13z" style="fill: rgb(54, 88, 56);"/>
    <path d="M2833 1385 c0 -33 2 -45 4 -27 2 18 2 45 0 60 -2 15 -4 0 -4 -33z" style="fill: rgb(54, 88, 56);"/>
    <path d="M2820 1285 c0 -19 2 -35 4 -35 2 0 6 16 8 35 2 19 0 35 -4 35 -4 0 -8 -16 -8 -35z" style="fill: rgb(54, 88, 56);"/>
    <path d="M2801 1198 c0 -9 -4 -25 -7 -35 -5 -17 -5 -17 6 0 6 10 9 25 7 35 -4 15 -5 15 -6 0z" style="fill: rgb(54, 88, 56);"/>
    <path d="M2765 1093 c-10 -27 -28 -64 -40 -83 -35 -56 -36 -60 -31 -60 9 0 55 76 81 135 13 30 20 55 16 55 -5 0 -16 -21 -26 -47z" style="fill: rgb(54, 88, 56);"/>
    <path d="M1905 1409 c-4 -6 -5 -12 -2 -15 2 -3 7 2 10 11 7 17 1 20 -8 4z" style="fill: rgb(54, 88, 56);"/>
    <path d="M1738 1383 l-67 -4 -7 -36 c-5 -26 -3 -38 7 -44 36 -20 84 -61 99 -83 15 -24 16 -23 31 75 8 54 12 98 9 97 -3 -1 -35 -3 -72 -5z" style="fill: rgb(54, 88, 56);"/>
    <path d="M1625 1373 c-76 -16 -74 -13 -32 -35 22 -11 40 -18 42 -16 3 5 16 58 13 57 -2 -1 -12 -3 -23 -6z" style="fill: rgb(54, 88, 56);"/>
    <path d="M1879 1360 c-24 -19 -24 -19 -3 -20 13 0 24 8 27 20 6 25 5 25 -24 0z" style="fill: rgb(54, 88, 56);"/>
    <path d="M2214 1590 c-27 -11 -65 -57 -114 -138 -36 -61 -74 -151 -67 -158 1 -2 33 13 71 31 37 19 86 40 107 46 60 18 53 31 -23 44 -21 3 -38 11 -38 16 0 6 25 34 56 64 42 39 55 58 52 75 -4 27 -15 32 -44 20z" style="fill: rgb(54, 88, 56);"/>
    <path d="M2297 1383 c-4 -3 -7 -18 -7 -32 l1 -26 14 25 c8 14 14 28 15 33 0 9 -14 9 -23 0z" style="fill: rgb(54, 88, 56);"/>
    <path d="M2180 1343 c-115 -47 -154 -75 -164 -116 -11 -42 -31 -51 -22 -9 l6 27 -25 -28 c-32 -36 -32 -55 1 -68 61 -23 204 29 262 95 44 50 56 127 19 126 -7 -1 -41 -13 -77 -27z" style="fill: rgb(54, 88, 56);"/>
    <text style="fill: rgb(255, 255, 255); font-family: &quot;Mongolian Baiti&quot;; font-size: 290px; text-transform: uppercase; white-space: pre;" transform="matrix(1, 0, 0, -1, 0, 0)" x="405.718" y="-375.44" dx="-93.695" dy="104.105">Hair &amp; Beauty Corner</text>
  </g>
</svg>